<?xml version="1.0" standalone="no"?>
<!DOCTYPE svg PUBLIC "-//W3C//DTD SVG 20010904//EN"
 "http://www.w3.org/TR/2001/REC-SVG-20010904/DTD/svg10.dtd">
<svg version="1.0" xmlns="http://www.w3.org/2000/svg"
 width="512.000000pt" height="512.000000pt" viewBox="0 0 512.000000 512.000000"
 preserveAspectRatio="xMidYMid meet">

<g transform="translate(0.000000,512.000000) scale(0.100000,-0.100000)"
fill="#000000" stroke="none">
<path d="M378 5110 c-180 -31 -297 -130 -350 -295 l-23 -70 0 -2185 0 -2185
23 -70 c45 -142 135 -232 277 -277 l70 -23 2185 0 2185 0 70 23 c142 45 232
135 277 277 l23 70 0 2185 0 2185 -23 70 c-44 139 -133 229 -272 277 l-65 23
-2165 1 c-1191 1 -2186 -2 -2212 -6z m666 -1616 l46 -7 0 -67 0 -67 -72 1
c-132 2 -178 -48 -178 -191 l0 -83 100 0 100 0 0 -60 0 -60 -100 0 -100 0 -2
-412 -3 -413 -80 0 -80 0 -3 413 -2 412 -75 0 -75 0 0 60 0 60 74 0 73 0 6 99
c3 70 11 113 27 147 56 127 184 190 344 168z m2856 -689 l0 -676 -77 3 -78 3
-3 673 -2 672 80 0 80 0 0 -675z m-2179 266 c143 -54 228 -212 229 -423 l0
-88 -320 0 -321 0 6 -37 c19 -112 69 -191 153 -241 41 -24 57 -27 132 -27 75
0 91 3 132 27 25 16 60 42 78 59 35 35 46 33 103 -16 27 -24 27 -25 11 -51
-29 -43 -120 -111 -176 -131 -40 -13 -82 -18 -168 -18 -109 0 -119 2 -182 32
-174 82 -261 258 -245 493 16 224 141 393 324 440 58 14 181 5 244 -19z m953
2 c67 -25 129 -83 163 -151 l28 -57 6 -330 c3 -222 9 -339 17 -358 7 -16 10
-33 6 -38 -3 -5 -40 -9 -83 -9 -76 0 -79 1 -89 28 -6 15 -12 38 -14 51 l-3 25
-36 -32 c-67 -59 -122 -77 -234 -77 -113 0 -172 20 -234 78 -105 100 -109 290
-7 389 84 81 164 107 364 115 l142 6 0 60 c0 69 -25 131 -65 160 -14 10 -49
23 -79 29 -107 23 -218 -26 -248 -108 l-12 -34 -78 0 c-74 0 -78 1 -78 23 1
64 68 151 155 203 94 54 271 67 379 27z m884 21 c20 -6 22 -12 22 -80 l0 -74
-75 0 c-89 0 -159 -29 -197 -82 -23 -33 -23 -36 -28 -378 l-5 -345 -77 -3 -78
-3 0 476 0 475 80 0 80 0 0 -50 0 -51 31 36 c59 67 165 101 247 79z m792 -356
c62 -189 116 -347 118 -352 3 -5 18 31 33 80 15 49 50 161 77 249 27 88 64
206 82 263 l33 102 83 0 c46 0 84 -2 84 -6 0 -5 -198 -582 -243 -709 -14 -38
-53 -148 -86 -243 -34 -96 -69 -188 -77 -204 -31 -60 -103 -126 -160 -148 -62
-23 -92 -25 -146 -9 l-38 10 0 64 0 65 55 0 c102 0 155 40 195 147 38 102 40
94 -80 423 -61 168 -134 367 -161 444 -28 76 -53 145 -56 152 -4 11 12 14 84
14 l89 0 114 -342z"/>
<path d="M1517 2960 c-63 -12 -118 -58 -155 -130 -18 -36 -35 -82 -39 -102
l-6 -38 238 0 238 0 -6 55 c-12 114 -80 197 -177 215 -29 6 -53 9 -54 9 0 -1
-18 -5 -39 -9z"/>
<path d="M2445 2583 c-106 -22 -165 -81 -165 -163 0 -52 25 -99 73 -134 23
-17 43 -21 110 -21 71 0 88 4 128 27 25 15 60 43 78 63 30 35 31 38 31 135 l0
100 -117 -1 c-65 -1 -127 -3 -138 -6z"/>
</g>
</svg>
